/* XPM */
static char *f1e26f9e08264f3cd75158865501581ckJty7GxWUL8c8VCU[] = {
/* columns rows colors chars-per-pixel */
"125 125 37 1 ",
"  c white",
". c #FF4655",
"X c #FF4352",
"o c #FFF6F7",
"O c #FF626D",
"+ c #FF3849",
"@ c #FF3A4B",
"# c #FF3547",
"$ c #FF3D4E",
"% c #FF3244",
"& c #FF2E42",
"* c #FFE1E3",
"= c #FF6671",
"- c #FF4050",
"; c snow",
": c #FFCED1",
"> c #FFEFF0",
", c #FF6D77",
"< c #FF4E5C",
"1 c #FFC8CB",
"2 c #FF9299",
"3 c #FF263B",
"4 c #FF1E36",
"5 c #FF5764",
"6 c #FF7882",
"7 c #FF878F",
"8 c #FFA7AC",
"9 c #FFE7E9",
"0 c #FFC1C5",
"q c #FFDCDE",
"w c #FF9AA0",
"e c #FF747E",
"r c #FFB8BC",
"t c #FF7F87",
"y c #FFD5D8",
"u c #FFAFB4",
"i c #FFA0A6",
/* pixels */
"                                                                                                                             ",
"                                                                                                                             ",
"                                                                                                                             ",
"                                                                                                                             ",
"                                                                                                                             ",
"                                                                                                                             ",
"                                                                                                                             ",
"                                                                                                                             ",
"                                                                                                                             ",
"                                                                                                                             ",
"                                                                                                                             ",
"                                                                                                                             ",
"                                                                                                                             ",
"                                                                                                                             ",
"                                                                                                                             ",
"                                                                                                                             ",
"                                                                                                                             ",
"                                                                                                                             ",
"                                                                                                                             ",
"                                                                                                                             ",
"                                                                                                                             ",
"                                                                                                                             ",
"                                                                                                                             ",
"                                                                                                                             ",
"                                                                                                                             ",
"                                                                                                                             ",
"                                                                                                                             ",
"                                                                                                                             ",
"                    ;1                                                                                                       ",
"                     @*                                                                                0;                    ",
"                     X.o                                                                              :&                     ",
"                     .@,                                                                             9.X                     ",
"                     ..+2                                                                            O$.                     ",
"                     ...30                                                                          t@..                     ",
"                     ....&q                                                                        u&...                     ",
"                     ....X.>                                                                      :4....                     ",
"                     .....$,                                                                     *X.....                     ",
"                     ......+7                                                                   oO$.....                     ",
"                     .......#u                                                                  t+......                     ",
"                     ........4*                                                                w#.......                     ",
"                     .........#9                                                              14........                     ",
"                     .........-=;                                                            *%.........                     ",
"                     ..........#7                                                           >5-.........                     ",
"                     ...........#8                                                          6@..........                     ",
"                     ............&y                                                        2#...........                     ",
"                     .............3>                                                      u%............                     ",
"                     .............X5;                                                    q3.............                     ",
"                     ..............+7                                                   >.X.............                     ",
"                     ...............%8                                                 ;,$..............                     ",
"                     ................#1                                                2%...............                     ",
"                     .................%9                                              8&................                     ",
"                     .................X.;                                            :+.................                     ",
"                     ..................@6                                           >+X.................                     ",
"                     ...................&i                                         ;O-..................                     ",
"                     ....................&0                                        7+...................                     ",
"                     .....................+q                                      8&....................                     ",
"                     .....................X<o                                    0#.....................                     ",
"                     ......................$=                                   *-X.....................                     ",
"                     .......................%w                                  .-......................                     ",
"                     ........................30                                e$.......................                     ",
"                     .........................%y                              w%........................                     ",
"                     .........................X<>                            0%.........................                     ",
"                     ..........................$=                           y-.........................-                     ",
"                     <-.........................+7                         ><-........................#i                     ",
"                     *@..........................30                        O$........................@6                      ",
"                      :%..........................4y                      7+........................-5;                      ",
"                       r&.........................X.9                    r&.........................+9                       ",
"                        w%.........................$=;                  y+.........................&0                        ",
"                         ,$.........................+7                 9<X........................+2                         ",
"                         ;<-.........................#8                O$........................$=                          ",
"                          >.X.........................4y              6+........................X<o                          ",
"                           q@..........................@9            8%.........................@q                           ",
"                            0&.........................-Oo          1&.........................&r                            ",
"                             8%.........................#7         9.......XXXX---$$$@@@+@++#+&2                             ",
"                              t+.........................%i              ;oo>>99**qqy::1100rrru                              ",
"                               ,@.........................&0                                                                 ",
"                               >5-.........................&9                                                                ",
"                                *.X........................X5o                                                               ",
"                                 y&.........................+t                                                               ",
"                                  r3.........................&i                                                              ",
"                                   2#.........................&r                                                             ",
"                                    t+.........................@q                                                            ",
"                                    ;,@........................XX;                                                           ",
"                                     9<X........................$,                                                           ",
"                                      q3.........................%w                                                          ",
"                                       y4.........................3r                                                         ",
"                                        u#.........................$:                                                        ",
"                                         2+........................X.>                                                       ",
"                                          e@........................$O                                                       ",
"                                          ;5-........................+7                                                      ",
"                                           >$X........................3u                                                     ",
"                                            q&.........................#:                                                    ",
"                                             0#........................X<*                                                   ",
"                                              i#........................$O                                                   ",
"                                               7#........................@t                                                  ",
"                                                ,@XXXXXXXXXXXXXXXXXXXXXXXX3i                                                 ",
"                                                ;,OOOOOOOOOOOOOOOOOOOOOOOOO<y                                                ",
"                                                 ;ooooooooooooooooooooooooooo                                                ",
"                                                                                                                             ",
"                                                                                                                             ",
"                                                                                                                             ",
"                                                                                                                             ",
"                                                                                                                             ",
"                                                                                                                             ",
"                                                                                                                             ",
"                                                                                                                             ",
"                                                                                                                             ",
"                                                                                                                             ",
"                                                                                                                             ",
"                                                                                                                             ",
"                                                                                                                             ",
"                                                                                                                             ",
"                                                                                                                             ",
"                                                                                                                             ",
"                                                                                                                             ",
"                                                                                                                             ",
"                                                                                                                             ",
"                                                                                                                             ",
"                                                                                                                             ",
"                                                                                                                             ",
"                                                                                                                             ",
"                                                                                                                             ",
"                                                                                                                             ",
"                                                                                                                             ",
"                                                                                                                             "
};
